<svg width="108" height="85" xmlns="http://www.w3.org/2000/svg" xmlns:xlink="http://www.w3.org/1999/xlink" xml:space="preserve" overflow="hidden"><g transform="translate(-2041 -1861)"><path d="M2066.5 1886.5C2066.5 1874.35 2076.13 1864.5 2088 1864.5 2099.87 1864.5 2109.5 1874.35 2109.5 1886.5 2109.5 1898.65 2099.87 1908.5 2088 1908.5 2076.13 1908.5 2066.5 1898.65 2066.5 1886.5Z" stroke="#000000" stroke-width="6.875" stroke-miterlimit="8" fill="none" fill-rule="evenodd"/><path d="M2088 1915.5C2100.01 1915.5 2110.89 1917.55 2118.76 1920.88L2118.81 1920.9 2118.81 1920.9 2121.57 1922.18C2127.77 1925.35 2131.5 1929.42 2131.5 1933.86L2131.5 1942.5 2126.38 1942.5 2049.62 1942.5 2044.5 1942.5 2044.5 1933.86C2044.5 1929.42 2048.23 1925.35 2054.43 1922.18L2057.19 1920.9 2057.19 1920.9 2057.24 1920.88C2065.11 1917.55 2075.99 1915.5 2088 1915.5Z" stroke="#000000" stroke-width="6.875" stroke-miterlimit="8" fill="none" fill-rule="evenodd"/><path d="M2101.94 1915.5C2113.97 1915.5 2124.86 1917.55 2132.74 1920.88L2132.79 1920.9 2132.79 1920.9 2135.55 1922.18C2141.77 1925.35 2145.5 1929.42 2145.5 1933.86L2145.5 1942.5 2140.37 1942.5 2134.61 1942.5 2134.61 1933.86C2134.61 1929.42 2130.88 1925.35 2124.67 1922.18L2121.9 1920.9 2121.9 1920.9 2121.85 1920.88C2115.94 1918.39 2108.34 1916.61 2099.83 1915.87L2096.5 1915.73Z" stroke="#000000" stroke-width="6.875" stroke-miterlimit="8" fill-rule="evenodd"/><path d="M2105.75 1864.5C2117.76 1864.5 2127.5 1874.35 2127.5 1886.5 2127.5 1898.65 2117.76 1908.5 2105.75 1908.5 2102.74 1908.5 2099.88 1907.88 2097.28 1906.77L2096.5 1906.34 2099.42 1904.74C2105.2 1900.79 2109.01 1894.09 2109.01 1886.5 2109.01 1878.91 2105.2 1872.21 2099.42 1868.26L2096.5 1866.66 2097.28 1866.23C2099.88 1865.12 2102.74 1864.5 2105.75 1864.5Z" stroke="#000000" stroke-width="6.875" stroke-miterlimit="8" fill-rule="evenodd"/></g></svg>