<svg id="SvgjsSvg1001" width="256" height="256" xmlns="http://www.w3.org/2000/svg" version="1.1" xmlns:xlink="http://www.w3.org/1999/xlink" xmlns:svgjs="http://svgjs.com/svgjs"><defs id="SvgjsDefs1002"></defs><g id="SvgjsG1008"><svg xmlns="http://www.w3.org/2000/svg" enable-background="new 0 0 1024 1024" viewBox="0 0 1024 1024" width="256" height="256"><path d="M579.15,90.46c-10.46-8.27-20.08-15.81-29.42-23.06c-0.92-0.71-1.99-1.2-3.13-1.43c-11.6-2.31-25.06-0.54-37.92,4.98
		c-11.04,4.74-20.31,11.41-29.27,17.86l-58.27,41.97l-11.45,8.25l-10.64,7.66l-10.98,7.91c-4.7,3.39-9.46,7.02-14.07,10.53
		c-14.19,10.83-28.81,21.98-45.78,29.4c-2.11,0.92-4.25,1.79-6.44,2.59c-0.18,0.07-0.37,0.14-0.54,0.22
		c-3.13,1.42-4.91,4.81-4.26,8.23c0.07,0.39,0.15,0.77,0.21,1.16c2.52,14.11,1.67,28.34-2.63,44.65c-0.74,2.78,0.18,5.73,2.37,7.6
		c1.38,1.19,3.12,1.81,4.88,1.81c1.02,0,2.04-0.21,3-0.63c42-18.33,89.44-54.83,124.07-81.49l4.39-3.37
		c25.51-19.61,85.24-65.53,122.43-71.56c2.94-0.47,5.31-2.64,6.06-5.52C582.51,95.35,581.48,92.3,579.15,90.46z M355.01,219.66
		c-4.41,0-8-3.58-8-8c0-4.41,3.59-8,8-8c4.41,0,8,3.59,8,8C363.01,216.08,359.42,219.66,355.01,219.66z M383.89,200.16
		c-4.42,0-8-3.58-8-8c0-4.41,3.58-8,8-8c4.41,0,8,3.59,8,8C391.89,196.58,388.3,200.16,383.89,200.16z M411.01,180.81
		c-4.41,0-8-3.58-8-8c0-4.41,3.59-8,8-8c4.41,0,8,3.59,8,8C419.01,177.23,415.42,180.81,411.01,180.81z M436.51,161.66
		c-4.41,0-8-3.58-8-8c0-4.41,3.59-8,8-8c4.41,0,8,3.59,8,8C444.51,158.08,440.92,161.66,436.51,161.66z M462.51,142.16
		c-4.41,0-8-3.58-8-8c0-4.41,3.59-8,8-8c4.41,0,8,3.59,8,8C470.51,138.58,466.92,142.16,462.51,142.16z M489.01,122.91
		c-4.41,0-8-3.58-8-8c0-4.41,3.59-8,8-8c4.41,0,8,3.59,8,8C497.01,119.33,493.42,122.91,489.01,122.91z M518.51,104.06
		c-4.41,0-8-3.58-8-8c0-4.41,3.59-8,8-8c4.41,0,8,3.59,8,8C526.51,100.48,522.92,104.06,518.51,104.06z" fill="#f4499f" class="color000 svgShape"></path><path d="M291.53 621.55c-3.38 0-6.35-2.26-7.24-5.53-20.69-76.13-41.35-173.18-17.19-248.5 5.87-18.28 14.16-35.98 22.19-53.1 4.67-9.95 9.49-20.25 13.72-30.43 3.98-9.59 8.47-20.97 11.56-32.62l14.5 3.84c-3.31 12.51-8.03 24.48-12.2 34.54-4.36 10.49-9.26 20.94-13.99 31.04-7.82 16.69-15.91 33.95-21.48 51.31-20.35 63.44-6.79 144.73 10.58 214.02 16.31-44.64 48.8-92.46 84.95-123.25 7.42-6.32 15.09-12.68 22.5-18.83 33.91-28.13 68.98-57.21 91.84-91.97.4-.6.77-1.17 1.14-1.74l12.64 8.08c-.42.65-.84 1.3-1.27 1.94-24.07 36.6-60.01 66.41-94.77 95.24-7.37 6.12-15 12.44-22.35 18.7-41.14 35.04-77.24 93.17-87.79 141.36-.74 3.38-3.69 5.81-7.14 5.89C291.65 621.55 291.59 621.55 291.53 621.55zM524.74 947.72c-3.58.92-7.66-.14-22-4.85-3.42-1.12-8.06-2.65-9.47-2.93-5.33-.22-10.89 2.04-16.78 4.44-5.48 2.23-11.14 4.53-17.52 5.35-7.7.99-14.92-1.02-21.3-2.8-5.43-1.51-10.56-2.93-15.23-2.39-4.12.48-8.22 2.56-12.55 4.76-6.15 3.12-13.12 6.67-21.64 6.3-6.57-.28-12.22-2.86-17.21-5.14-4.89-2.23-9.11-4.15-12.9-3.45-2.64.48-5.1 2.32-7.94 4.46-3.7 2.77-8.3 6.21-14.58 7.25-1.34.22-2.65.32-3.92.32-6.37 0-11.87-2.5-16.82-4.74-3.43-1.56-6.68-3.03-9.76-3.47-4.13-.6-8.77.53-13.69 1.73-5.06 1.23-10.78 2.62-16.85 2.3-7.51-.4-13.93-3.32-19.6-5.88-1.29-.59-2.57-1.17-3.86-1.72-6.69-2.84-12.3-3.55-15.82-1.98-2.23 1-4.81.84-6.91-.42-2.1-1.26-3.45-3.46-3.62-5.9-.86-12.2.35-24.8 3.7-38.52.93-3.8 4.61-6.24 8.47-5.63 7.4 1.18 14.28 3.39 20.35 5.34 9.99 3.2 17.88 5.72 23.99 3.07 2.12-.92 4.31-2.28 6.62-3.72 5.17-3.23 11.03-6.88 18.48-6.98h.29c6.44 0 11.82 2.7 16.57 5.09 3.61 1.81 6.98 3.49 9.92 3.49 3.15-.04 6.53-2.03 10.46-4.34 4.45-2.62 9.5-5.59 15.64-6.33 7.68-.92 14.37 1.9 20.27 4.39 4.08 1.72 7.93 3.35 11.42 3.46 4.85.19 10.03-2.56 15.51-5.45 6.6-3.47 14.06-7.42 22.82-7.18 6.56.17 12.29 2.66 17.34 4.86 3.83 1.67 7.44 3.24 10.83 3.59 6.15.65 12.69-2.53 19.61-5.88 1.69-.82 3.45-1.67 5.22-2.47 10.98-4.97 26.63-7.04 36.84-.48 1.72 1.11 2.91 2.87 3.3 4.87 3.29 16.83 5.87 32.99 7.89 49.4C530.78 943.28 528.39 946.79 524.74 947.72zM799.2 804.42c-4.42-15.25-8.73-30.78-12.79-46.14-.78-2.94-3.25-5.11-6.26-5.51-3.02-.4-5.97 1.05-7.49 3.69-14.35 24.92-38.16 46.05-65.32 57.97-30.45 13.36-59.56 23.92-84.03 32.49-26.93 9.42-63.82 22.33-86.55 46.55-2.2 2.35-2.66 5.84-1.14 8.68 6.65 12.36 14.54 24.16 23.46 35.06 1.29 1.58 3.17 2.56 5.2 2.73.2.01.4.02.6.02 1.82 0 3.6-.67 4.97-1.88 27.1-23.99 66-36.89 103.61-49.36 5.14-1.7 10.27-3.4 15.36-5.13 43.77-14.83 91.06-35.19 109.92-73.79C799.56 808.13 799.72 806.21 799.2 804.42zM577.28 906.11c-4.41 0-8-3.59-8-8 0-4.41 3.59-8 8-8 4.41 0 8 3.59 8 8C585.28 902.52 581.69 906.11 577.28 906.11zM606.28 891.11c-4.41 0-8-3.59-8-8 0-4.41 3.59-8 8-8 4.41 0 8 3.59 8 8C614.28 887.52 610.69 891.11 606.28 891.11zM638.78 879.36c-4.41 0-8-3.59-8-8 0-4.41 3.59-8 8-8 4.41 0 8 3.59 8 8C646.78 875.77 643.19 879.36 638.78 879.36zM670.53 868.61c-4.41 0-8-3.59-8-8 0-4.41 3.59-8 8-8 4.41 0 8 3.59 8 8C678.53 865.02 674.94 868.61 670.53 868.61zM701.53 857.11c-4.41 0-8-3.59-8-8 0-4.41 3.59-8 8-8 4.41 0 8 3.59 8 8C709.53 853.52 705.94 857.11 701.53 857.11zM732.53 842.86c-4.41 0-8-3.59-8-8 0-4.41 3.59-8 8-8 4.41 0 8 3.59 8 8C740.53 839.27 736.94 842.86 732.53 842.86zM760.28 822.69c-4.41 0-8-3.59-8-8s3.59-8 8-8c4.41 0 8 3.59 8 8S764.69 822.69 760.28 822.69z" fill="#f4499f" class="color000 svgShape"></path><path d="M535.63 902.15c-30.09-55.93-32.1-119.49-33.71-170.57L487.5 276.93l14.99-.47 14.41 454.66c1.65 52.08 3.51 111.11 31.93 163.93L535.63 902.15zM771.91 762.12c-40.45-153.01-62.28-309.99-64.9-466.56l-.05-2.74c-.41-24.75-.83-50.34-11.32-72.78-12.85-27.48-40.58-49.72-65.04-69.35l-1.7-1.36c-19.3-15.47-39.26-31.47-59.06-47.1l9.3-11.77c19.84 15.67 39.82 31.68 59.14 47.17l1.7 1.36c25.74 20.65 54.92 44.06 69.24 74.7 11.85 25.34 12.3 52.56 12.73 78.88l.05 2.74c2.6 155.37 24.26 311.14 64.4 462.98L771.91 762.12zM272.33 410.67l-12.28-8.62c26.08-37.16 66.55-65.94 105.69-93.77 7.69-5.47 14.95-10.63 22.14-15.88 40.44-29.54 85.38-64.99 106.88-112.08l13.65 6.23c-23 50.39-69.7 87.31-111.68 117.97-7.27 5.31-14.91 10.74-22.29 15.99C336.33 347.6 296.93 375.62 272.33 410.67zM278.88 531.96l-14.27-4.63c10.96-33.79 35.64-55.82 62.12-77.24 2.56-2.07 5.14-4.14 7.72-6.21 23.63-18.96 48.06-38.57 62.23-63.54l13.04 7.4c-15.59 27.47-41.16 47.99-65.89 67.83-2.57 2.06-5.13 4.12-7.68 6.18C311.5 481.7 288.57 502.09 278.88 531.96z" fill="#f4499f" class="color000 svgShape"></path><path d="M684.89 794.41l-14.76-2.66c11.01-61.18 9.3-74.25 2.93-122.9l-.04-.3c-3.3-25.18-8.23-50.74-13-75.44-4.51-23.37-9.18-47.53-12.5-71.53-11.93-86.2-7.26-172.97 13.88-257.92l14.56 3.62c-20.67 83.09-25.24 167.96-13.58 252.25 3.27 23.61 7.89 47.57 12.37 70.74 4.81 24.93 9.79 50.71 13.15 76.34l.04.3C694.37 716.1 696.31 730.94 684.89 794.41zM617.26 815.3l-14.83-2.23c10.53-70.16-1.06-127.28-14.48-193.42-3.3-16.29-6.72-33.13-9.92-50.76-16.26-89.61-26.39-184.43 9.22-270.75l13.87 5.72c-34.14 82.74-24.18 174.99-8.33 262.35 3.17 17.47 6.57 34.24 9.86 50.45C616.35 684.21 628.18 742.53 617.26 815.3zM421.14 130.78l-11.45 8.25-10.64 7.66-10.98 7.91c-4.7 3.39-9.46 7.02-14.07 10.53-14.19 10.83-28.81 21.98-45.78 29.4-2.11.92-4.25 1.79-6.44 2.59-.18.07-.37.14-.54.22-3.13 1.42-4.91 4.81-4.26 8.23.07.39.15.77.21 1.16-6.85-12.55-6.78-27.38-6.68-49.47.01-2.83.02-5.79.02-8.91.12-15.48-2.62-20.72-9.26-33.37-.8-1.54-1.66-3.17-2.56-4.92-.99-1.91-1.1-4.16-.32-6.16.79-2.01 2.39-3.58 4.42-4.32 7.66-2.79 13.89-5.09 20.11-7.38 6.29-2.32 12.57-4.63 20.31-7.45 3.54-1.3 7.5.25 9.23 3.6 1.61 3.12 3.06 6.01 4.4 8.68 7.12 14.18 10.7 21.3 19.75 27.07 13.8 8.79 23.77 8.09 37.57 7.12C416.42 131.07 418.73 130.9 421.14 130.78zM507.7 893.01c-7.92-40.63-18.51-77.14-28.75-112.44-2.25-7.76-4.48-15.46-6.67-23.12-.97-3.41-2.01-6.93-3.08-10.56-7.44-25.27-16.7-56.72-15.32-90.45 1.46-35.44 10.74-56.71 27.61-95.31 4.1-9.39 8.75-20.03 13.87-32.21l13.83 5.82c-5.16 12.27-9.83 22.96-13.95 32.4-16.66 38.15-25.03 57.29-26.37 89.92-1.28 31.25 7.6 61.39 14.73 85.6 1.08 3.68 2.13 7.24 3.11 10.69 2.18 7.64 4.4 15.32 6.65 23.05 10.34 35.62 21.02 72.46 29.07 113.75L507.7 893.01zM243.05 904l-14.57-3.55c4.37-17.9 11.83-35.35 19.04-52.23 7.18-16.79 14.59-34.15 18.61-51.36 6.38-27.35 7.59-59.21 8.75-90.03 1.21-31.95 2.46-64.98 9.35-94.48l14.61 3.41c-6.56 28.1-7.78 60.4-8.97 91.64-1.19 31.52-2.43 64.12-9.13 92.87-4.32 18.49-12 36.46-19.43 53.84C254.33 870.42 247.12 887.3 243.05 904zM315.09 862.77l-14.02-5.32c29.39-77.46 28.96-109.48 28.19-167.6l-.01-.4c-.08-6.24-.21-12.75-.35-19.47-1.15-57.57-2.58-129.21 21.47-180.32l13.57 6.39c-22.56 47.93-21.17 117.63-20.05 173.64.13 6.76.27 13.3.35 19.57l0 .4C345.02 747.64 345.48 782.65 315.09 862.77z" fill="#f4499f" class="color000 svgShape"></path><path d="M392.67,857.27l-14.99-0.43c1.01-35.53-5.72-73.68-12.23-110.57c-4.08-23.1-8.29-46.99-10.5-69.81
		c-3.2-33.04-5.97-68.51-4.56-104.05c1.8-45.45,9.92-80.61,24.84-107.47l13.12,7.28c-32.45,58.46-23,155.95-18.46,202.8
		c2.16,22.24,6.32,45.84,10.34,68.65C386.86,781.3,393.73,820.21,392.67,857.27z" fill="#f4499f" class="color000 svgShape"></path><path d="M441.17,850.8c-6.6-41.3-19.94-83.44-32.85-124.18c-6.1-19.25-12.4-39.15-17.9-58.68c-9.71-34.49-15.38-75.25-15.56-111.82
		c-0.22-45.77,8.03-84.13,23.86-110.93l12.92,7.63c-30.8,52.14-25.1,145.96-6.78,211.05c5.43,19.29,11.7,39.08,17.76,58.21
		c13.07,41.27,26.58,83.94,33.36,126.34L441.17,850.8z" fill="#f4499f" class="color000 svgShape"></path></svg></g></svg>