<svg width="1723" height="277" xmlns="http://www.w3.org/2000/svg" xmlns:xlink="http://www.w3.org/1999/xlink" xml:space="preserve" overflow="hidden"><g transform="translate(-1952 -819)"><path d="M1966 849.022C2011.7 964.585 2057.4 1080.15 2102.8 1079.98 2148.2 1079.81 2192.8 847.83 2238.4 848 2284 848.17 2330.8 1080.83 2376.4 1081 2422 1081.17 2493.6 888.707 2512 849.022" stroke="#FFFFFF" stroke-width="27.5" stroke-miterlimit="8" fill="none" fill-rule="evenodd"/><path d="M2512 1079.29C2558.34 963.501 2604.67 847.715 2650.5 848.001 2696.34 848.286 2773.62 1032.17 2787 1081" stroke="#FFFFFF" stroke-width="27.5" stroke-miterlimit="8" fill="none" fill-rule="evenodd"/><path d="M0 1.01754C45.7 116.085 91.3999 231.152 136.8 230.982 182.2 230.813 226.8-0.169537 272.4 0 318 0.169537 364.8 231.831 410.4 232 456 232.17 527.6 40.5322 546 1.01754" stroke="#FFFFFF" stroke-width="27.5" stroke-miterlimit="8" fill="none" fill-rule="evenodd" transform="matrix(1 0 0 -1 2828 1080)"/><path d="M3449 857.258C3460.85 840.975 3468.33 848.819 3471.62 880.37 3474.91 911.922 3465.93 1012.76 3468.73 1046.57 3471.52 1080.38 3474.01 1090.38 3490 1074.9" stroke="#FFFFFF" stroke-width="27.5" stroke-miterlimit="8" fill="none" fill-rule="evenodd"/><path d="M3551 860.254C3562.75 843.979 3570.17 851.819 3573.43 883.356 3576.69 914.893 3567.79 1015.68 3570.56 1049.48 3573.34 1083.27 3649.15 1089.43 3665 1073.96" stroke="#FFFFFF" stroke-width="27.5" stroke-miterlimit="8" fill="none" fill-rule="evenodd"/><path d="M2626 984.5C2626 973.178 2635.85 964 2648 964 2660.15 964 2670 973.178 2670 984.5 2670 995.822 2660.15 1005 2648 1005 2635.85 1005 2626 995.822 2626 984.5Z" stroke="#FFFFFF" stroke-width="13.75" stroke-miterlimit="8" fill="none" fill-rule="evenodd"/></g></svg>