<svg width="617" height="62" xmlns="http://www.w3.org/2000/svg" xmlns:xlink="http://www.w3.org/1999/xlink" xml:space="preserve" overflow="hidden"><g transform="translate(-1664 -205)"><path d="M1667.5 211.728C1683.07 237.519 1698.64 263.31 1714.1 263.272 1729.57 263.234 1744.76 211.462 1760.3 211.5 1775.83 211.538 1791.77 263.462 1807.31 263.5 1822.84 263.538 1847.23 220.585 1853.5 211.728" stroke="#000000" stroke-width="6.875" stroke-miterlimit="8" fill="none" fill-rule="evenodd"/><path d="M1857.5 263.118C1873.34 237.277 1889.18 211.436 1904.84 211.5 1920.51 211.564 1946.93 252.603 1951.5 263.5" stroke="#000000" stroke-width="6.875" stroke-miterlimit="8" fill="none" fill-rule="evenodd"/><path d="M0 0.228071C15.5681 26.0191 31.1362 51.8102 46.6022 51.7722 62.0681 51.7342 77.2615-0.0379999 92.7956 0 108.33 0.0379999 124.273 51.9623 139.807 52.0003 155.341 52.0383 179.732 9.08485 186 0.228071" stroke="#000000" stroke-width="6.875" stroke-miterlimit="8" fill="none" fill-rule="evenodd" transform="matrix(1 0 0 -1 1982.5 263.5)"/><path d="M2194.5 213.343C2198.55 209.709 2201.1 211.459 2202.22 218.501 2203.35 225.543 2200.28 248.046 2201.24 255.592 2202.19 263.138 2203.04 265.37 2208.5 261.916" stroke="#000000" stroke-width="6.875" stroke-miterlimit="8" fill="none" fill-rule="evenodd"/><path d="M2239.5 214.33C2243.52 210.721 2246.06 212.46 2247.17 219.453 2248.29 226.446 2245.24 248.794 2246.19 256.288 2247.14 263.782 2273.08 265.147 2278.5 261.717" stroke="#000000" stroke-width="6.875" stroke-miterlimit="8" fill="none" fill-rule="evenodd"/><path d="M1899.5 242C1899.5 239.515 1902.86 237.5 1907 237.5 1911.14 237.5 1914.5 239.515 1914.5 242 1914.5 244.485 1911.14 246.5 1907 246.5 1902.86 246.5 1899.5 244.485 1899.5 242Z" stroke="#000000" stroke-width="3.4375" stroke-miterlimit="8" fill="none" fill-rule="evenodd"/></g></svg>