<svg width="48" height="48" viewBox="0 0 48 48" fill="none" xmlns="http://www.w3.org/2000/svg">
<g id="cloud-upload">
<g id="Vector">
<path fill-rule="evenodd" clip-rule="evenodd" d="M13.218 4.026C16.2164 1.44041 20.0407 0.0124155 24 0C32.07 0 38.769 6 39.498 13.737C44.274 14.412 48 18.411 48 23.319C48 28.707 43.506 33 38.061 33H30C29.6022 33 29.2206 32.842 28.9393 32.5607C28.658 32.2794 28.5 31.8978 28.5 31.5C28.5 31.1022 28.658 30.7206 28.9393 30.4393C29.2206 30.158 29.6022 30 30 30H38.064C41.937 30 45 26.964 45 23.319C45 19.671 41.94 16.635 38.061 16.635H36.561V15.135C36.564 8.475 30.984 3 24 3C20.7596 3.01294 17.6305 4.1833 15.177 6.3C12.906 8.256 11.718 10.614 11.718 12.465V13.809L10.383 13.956C6.192 14.415 3 17.856 3 21.954C3 26.355 6.69 30 11.343 30H18C18.3978 30 18.7794 30.158 19.0607 30.4393C19.342 30.7206 19.5 31.1022 19.5 31.5C19.5 31.8978 19.342 32.2794 19.0607 32.5607C18.7794 32.842 18.3978 33 18 33H11.343C5.124 33 0 28.098 0 21.954C0 16.665 3.798 12.285 8.826 11.175C9.255 8.586 10.92 6.006 13.218 4.026Z" fill="#2B96E8"/>
<path fill-rule="evenodd" clip-rule="evenodd" d="M22.938 12.438C23.0773 12.2983 23.2429 12.1875 23.4251 12.1119C23.6073 12.0362 23.8027 11.9973 24 11.9973C24.1973 11.9973 24.3927 12.0362 24.5749 12.1119C24.7571 12.1875 24.9227 12.2983 25.062 12.438L34.062 21.438C34.3437 21.7197 34.5019 22.1017 34.5019 22.5C34.5019 22.8983 34.3437 23.2803 34.062 23.562C33.7803 23.8437 33.3983 24.0019 33 24.0019C32.6017 24.0019 32.2197 23.8437 31.938 23.562L25.5 17.121V43.5C25.5 43.8978 25.342 44.2794 25.0607 44.5607C24.7794 44.842 24.3978 45 24 45C23.6022 45 23.2206 44.842 22.9393 44.5607C22.658 44.2794 22.5 43.8978 22.5 43.5V17.121L16.062 23.562C15.7803 23.8437 15.3983 24.0019 15 24.0019C14.6017 24.0019 14.2197 23.8437 13.938 23.562C13.6563 23.2803 13.4981 22.8983 13.4981 22.5C13.4981 22.1017 13.6563 21.7197 13.938 21.438L22.938 12.438Z" fill="#2B96E8"/>
</g>
</g>
</svg>
