<svg width="17" height="16" viewBox="0 0 17 16" fill="none" xmlns="http://www.w3.org/2000/svg">
<path fill-rule="evenodd" clip-rule="evenodd" d="M14.1874 2.14604C14.234 2.19248 14.2709 2.24766 14.2961 2.30841C14.3213 2.36915 14.3343 2.43427 14.3343 2.50004C14.3343 2.56581 14.3213 2.63093 14.2961 2.69167C14.2709 2.75242 14.234 2.80759 14.1874 2.85404L3.18741 13.854C3.09353 13.9479 2.96619 14.0007 2.83341 14.0007C2.70064 14.0007 2.5733 13.9479 2.47941 13.854C2.38553 13.7602 2.33278 13.6328 2.33278 13.5C2.33278 13.3673 2.38553 13.2399 2.47941 13.146L13.4794 2.14604C13.5259 2.09948 13.581 2.06253 13.6418 2.03733C13.7025 2.01212 13.7676 1.99915 13.8334 1.99915C13.8992 1.99915 13.9643 2.01212 14.025 2.03733C14.0858 2.06253 14.141 2.09948 14.1874 2.14604Z" fill="#BB001A"/>
<path fill-rule="evenodd" clip-rule="evenodd" d="M2.47941 2.14604C2.43285 2.19248 2.39591 2.24766 2.3707 2.30841C2.34549 2.36915 2.33252 2.43427 2.33252 2.50004C2.33252 2.56581 2.34549 2.63093 2.3707 2.69167C2.39591 2.75242 2.43285 2.80759 2.47941 2.85404L13.4794 13.854C13.5733 13.9479 13.7006 14.0007 13.8334 14.0007C13.9662 14.0007 14.0935 13.9479 14.1874 13.854C14.2813 13.7602 14.334 13.6328 14.334 13.5C14.334 13.3673 14.2813 13.2399 14.1874 13.146L3.18741 2.14604C3.14097 2.09948 3.08579 2.06253 3.02505 2.03733C2.9643 2.01212 2.89918 1.99915 2.83341 1.99915C2.76765 1.99915 2.70252 2.01212 2.64178 2.03733C2.58103 2.06253 2.52586 2.09948 2.47941 2.14604Z" fill="#BB001A"/>
</svg>
