<svg width="779" height="159" xmlns="http://www.w3.org/2000/svg" xmlns:xlink="http://www.w3.org/1999/xlink" xml:space="preserve" overflow="hidden"><g transform="translate(-1666 -274)"><path d="M1680 302.513C1699.25 360.543 1718.5 418.572 1737.63 418.487 1756.75 418.401 1775.54 301.915 1794.75 302 1813.96 302.086 1833.67 418.915 1852.88 419 1872.09 419.086 1902.25 322.441 1910 302.513" stroke="#000000" stroke-width="27.5" stroke-miterlimit="8" fill="none" fill-rule="evenodd"/><path d="M1914 418.14C1933.55 359.998 1953.09 301.857 1972.42 302 1991.76 302.144 2024.36 394.482 2030 419" stroke="#000000" stroke-width="27.5" stroke-miterlimit="8" fill="none" fill-rule="evenodd"/><path d="M0 0.508771C19.2509 58.0423 38.5018 115.576 57.6264 115.491 76.7509 115.406 95.5384-0.0847685 114.747 0 133.956 0.0847685 153.67 115.915 172.879 116 192.088 116.085 222.249 20.2661 230 0.508771" stroke="#000000" stroke-width="27.5" stroke-miterlimit="8" fill="none" fill-rule="evenodd" transform="matrix(1 0 0 -1 2069 418)"/><path d="M2330 307.111C2334.91 299.005 2338.02 302.91 2339.38 318.618 2340.74 334.326 2337.02 384.526 2338.18 401.359 2339.34 418.192 2340.37 423.171 2347 415.467" stroke="#000000" stroke-width="27.5" stroke-miterlimit="8" fill="none" fill-rule="evenodd"/><path d="M2386 308.127C2390.95 299.989 2394.07 303.909 2395.45 319.678 2396.82 335.446 2393.07 385.84 2394.24 402.738 2395.41 419.635 2427.32 422.713 2434 414.979" stroke="#000000" stroke-width="27.5" stroke-miterlimit="8" fill="none" fill-rule="evenodd"/><path d="M1966 370.5C1966 364.701 1970.25 360 1975.5 360 1980.75 360 1985 364.701 1985 370.5 1985 376.299 1980.75 381 1975.5 381 1970.25 381 1966 376.299 1966 370.5Z" stroke="#000000" stroke-width="13.75" stroke-miterlimit="8" fill="none" fill-rule="evenodd"/></g></svg>